HIERARCHY
ROOT root
{
  OFFSET 0 95.9893 0
  CHANNELS 6 Xposition Yposition Zposition Zrotation Xrotation Yrotation
  JOINT torso_1
  {
    OFFSET 0 5.22546 -1.18466
    CHANNELS 6 Xposition Yposition Zposition Zrotation Xrotation Yrotation
    JOINT torso_2
    {
      OFFSET 0 5.77894 1.10239
      CHANNELS 6 Xposition Yposition Zposition Zrotation Xrotation Yrotation
      JOINT torso_3
      {
        OFFSET -1.0557e-17 6.16289 0.118334
        CHANNELS 6 Xposition Yposition Zposition Zrotation Xrotation Yrotation
        JOINT torso_4
        {
          OFFSET -1.13649e-17 6.69386 -0.456341
          CHANNELS 6 Xposition Yposition Zposition Zrotation Xrotation Yrotation
          JOINT torso_5
          {
            OFFSET -2.02997e-17 7.82529 -1.54945
            CHANNELS 6 Xposition Yposition Zposition Zrotation Xrotation Yrotation
            JOINT torso_6
            {
              OFFSET -2.60628e-17 9.77186 -0.940923
              CHANNELS 6 Xposition Yposition Zposition Zrotation Xrotation Yrotation
              JOINT torso_7
              {
                OFFSET -2.98794e-17 10.8563 1.62248
                CHANNELS 6 Xposition Yposition Zposition Zrotation Xrotation Yrotation
                JOINT neck_1
                {
                  OFFSET -1.32927e-17 4.92478 0.736013
                  CHANNELS 6 Xposition Yposition Zposition Zrotation Xrotation Yrotation
                  JOINT neck_2
                  {
                    OFFSET -1.86396e-17 4.96043 0.433981
                    CHANNELS 6 Xposition Yposition Zposition Zrotation Xrotation Yrotation
                    JOINT head
                    {
                      OFFSET -2.06766e-17 4.97002 0.787173
                      CHANNELS 6 Xposition Yposition Zposition Zrotation Xrotation Yrotation
                      End Site
                      {
                        OFFSET 0 0.1 0
                      }
                    }
                  }
                }
                JOINT l_shoulder
                {
                  OFFSET 1.26863 -7.82717 7.75148
                  CHANNELS 6 Xposition Yposition Zposition Zrotation Xrotation Yrotation
                  JOINT l_up_arm
                  {
                    OFFSET 13.3291 3.34342 -3.36319
                    CHANNELS 6 Xposition Yposition Zposition Zrotation Xrotation Yrotation
                    JOINT l_low_arm
                    {
                      OFFSET 30.0522 0.0615366 0.141
                      CHANNELS 6 Xposition Yposition Zposition Zrotation Xrotation Yrotation
                      JOINT l_hand
                      {
                        OFFSET 24.9344 0.0510561 0.116988
                        CHANNELS 6 Xposition Yposition Zposition Zrotation Xrotation Yrotation
                        End Site
                        {
                          OFFSET 0.1 0 0
                        }
                      }
                    }
                  }
                }
                JOINT r_shoulder
                {
                  OFFSET -1.26863 -7.82715 7.75138
                  CHANNELS 6 Xposition Yposition Zposition Zrotation Xrotation Yrotation
                  JOINT r_up_arm
                  {
                    OFFSET -13.3291 3.34342 -3.36319
                    CHANNELS 6 Xposition Yposition Zposition Zrotation Xrotation Yrotation
                    JOINT r_low_arm
                    {
                      OFFSET -30.0522 0.0615366 0.141
                      CHANNELS 6 Xposition Yposition Zposition Zrotation Xrotation Yrotation
                      JOINT r_hand
                      {
                        OFFSET -24.9344 0.0510559 0.116988
                        CHANNELS 6 Xposition Yposition Zposition Zrotation Xrotation Yrotation
                        End Site
                        {
                          OFFSET -0.1 0 0
                        }
                      }
                    }
                  }
                }
              }
            }
          }
        }
      }
    }
  }
  JOINT l_up_leg
  {
    OFFSET 9.50369 -4.32711 2.09145
    CHANNELS 6 Xposition Yposition Zposition Zrotation Xrotation Yrotation
    JOINT l_low_leg
    {
      OFFSET -0.876987 -39.8926 -0.674123
      CHANNELS 6 Xposition Yposition Zposition Zrotation Xrotation Yrotation
      JOINT l_foot
      {
        OFFSET -2.39345 -41.5694 -6.22357
        CHANNELS 6 Xposition Yposition Zposition Zrotation Xrotation Yrotation
        JOINT l_toes
        {
          OFFSET 0.801613 -10.1701 12.8571
          CHANNELS 6 Xposition Yposition Zposition Zrotation Xrotation Yrotation
          End Site
          {
            OFFSET 0 0 0.1
          }
        }
      }
    }
  }
  JOINT r_up_leg
  {
    OFFSET -9.50369 -4.32711 2.09145
    CHANNELS 6 Xposition Yposition Zposition Zrotation Xrotation Yrotation
    JOINT r_low_leg
    {
      OFFSET 0.876987 -39.8926 -0.674123
      CHANNELS 6 Xposition Yposition Zposition Zrotation Xrotation Yrotation
      JOINT r_foot
      {
        OFFSET 2.39345 -41.5694 -6.22357
        CHANNELS 6 Xposition Yposition Zposition Zrotation Xrotation Yrotation
        JOINT r_toes
        {
          OFFSET -0.801613 -10.1701 12.8571
          CHANNELS 6 Xposition Yposition Zposition Zrotation Xrotation Yrotation
          End Site
          {
            OFFSET 0 0 0.1
          }
        }
      }
    }
  }
}
MOTION
Frames: 4
Frame Time: 0.020000
-261.055 93.5123 -12.3054 -2.4509 -4.05258 -73.4143 0 5.22546 -1.18466 -3.51642 6.00563 1.94011 0 5.77894 1.10239 -3.05172 4.3661 1.45508 -1.0557e-17 6.16289 0.118334 -2.41241 3.33097 1.40609 -1.13649e-17 6.69386 -0.456341 -1.77025 1.28495 1.42144 -2.02997e-17 7.82529 -1.54945 -0.762924 -0.327486 1.60873 -2.60628e-17 9.77186 -0.940923 0.505054 -1.29815 1.31661 -2.98794e-17 10.8563 1.62248 -0.00500072 1.25395 0.0526387 -1.32927e-17 4.92478 0.736013 -0.20393 1.15183 -2.20447 -1.86396e-17 4.96043 0.433981 1.15731 -6.37299 -1.19896 -2.06766e-17 4.97002 0.787173 1.02937 -7.04828 0.970192 1.26863 -7.82717 7.75148 0.493807 4.38949 -2.13947 13.3291 3.34342 -3.36319 -83.0144 18.9951 -4.11837 30.0522 0.0615366 0.141 3.85181 -0.620196 -18.8794 24.9344 0.0510561 0.116988 -0.121325 -26.7443 -0.0585667 -1.26863 -7.82715 7.75138 0.473311 4.07163 2.55084 -13.3291 3.34342 -3.36319 81.9854 21.1306 14.8191 -30.0522 0.0615366 0.141 -4.22085 -0.75093 20.7615 -24.9344 0.0510559 0.116988 3.68303 -42.0337 6.718 9.50369 -4.32711 2.09145 -7.85296 -2.39297 -8.57831 -0.876987 -39.8926 -0.674123 -2.3151 8.61651 0.0237383 -2.39345 -41.5694 -6.22357 8.55455 -4.75181 14.8239 0.801613 -10.1701 12.8571 1.15886e-16 -6.67877e-16 -1.98141e-16 -9.50369 -4.32711 2.09145 -19.2519 -6.73627 -7.08603 0.876987 -39.8926 -0.674123 14.8772 44.6136 -5.30169 2.39345 -41.5694 -6.22357 9.2864 9.37462 -15.9042 -0.801613 -10.1701 12.8571 1.78529e-15 -4.88945e-16 -1.26789e-14 
-262.274 93.423 -11.6276 -2.66323 -4.17381 -72.4034 0 5.22546 -1.18466 -3.54959 6.16234 1.67813 0 5.77894 1.10239 -3.0107 4.48402 1.17964 -1.0557e-17 6.16289 0.118334 -2.3371 3.36997 1.13605 -1.13649e-17 6.69386 -0.456341 -1.65956 1.20121 1.15417 -2.02997e-17 7.82529 -1.54945 -0.675429 -0.496126 1.31881 -2.60628e-17 9.77186 -0.940923 0.521631 -1.52196 1.00436 -2.98794e-17 10.8563 1.62248 -0.0261058 1.29175 0.0693703 -1.32927e-17 4.92478 0.736013 -0.12014 1.50187 -1.95834 -1.86396e-17 4.96043 0.433981 1.09702 -6.25017 -1.0857 -2.06766e-17 4.97002 0.787173 1.11259 -6.92584 1.265 1.26863 -7.82717 7.75148 1.48582 4.30469 -1.99503 13.3291 3.34342 -3.36319 -83.2803 20.4308 -5.71017 30.0522 0.0615366 0.141 3.76917 -0.592753 -18.4606 24.9344 0.0510561 0.116988 -0.166877 -26.7686 -0.266601 -1.26863 -7.82715 7.75138 0.466948 4.33233 2.8352 -13.3291 3.34342 -3.36319 82.8417 20.724 14.4469 -30.0522 0.0615366 0.141 -3.83259 -0.613637 18.7808 -24.9344 0.0510559 0.116988 4.41418 -41.2508 7.30656 9.50369 -4.32711 2.09145 -8.24103 -0.983826 -9.46656 -0.876987 -39.8926 -0.674123 -2.19231 8.1638 0.0137235 -2.39345 -41.5694 -6.22357 9.1105 -5.20453 14.7998 0.801613 -10.1701 12.8571 4.50229e-17 -6.70939e-16 -1.93712e-16 -9.50369 -4.32711 2.09145 -18.9738 -8.59785 -6.25553 0.876987 -39.8926 -0.674123 16.4895 47.5491 -6.4105 2.39345 -41.5694 -6.22357 9.20293 10.409 -15.8723 -0.801613 -10.1701 12.8571 1.50184e-15 -4.76698e-16 -1.26678e-14 
-263.454 93.3527 -11.0396 -2.76916 -4.34785 -71.3837 0 5.22546 -1.18466 -3.60844 6.23854 1.41354 0 5.77894 1.10239 -2.99296 4.5587 0.897009 -1.0557e-17 6.16289 0.118334 -2.28222 3.40401 0.857709 -1.13649e-17 6.69386 -0.456341 -1.56959 1.18311 0.878373 -2.02997e-17 7.82529 -1.54945 -0.608947 -0.572432 1.02291 -2.60628e-17 9.77186 -0.940923 0.520255 -1.63079 0.688875 -2.98794e-17 10.8563 1.62248 -0.0455017 1.31201 0.0843712 -1.32927e-17 4.92478 0.736013 -0.0469694 1.84247 -1.67704 -1.86396e-17 4.96043 0.433981 1.04555 -6.1631 -0.959447 -2.06766e-17 4.97002 0.787173 1.19793 -6.92348 1.51286 1.26863 -7.82717 7.75148 2.41775 4.17811 -1.86032 13.3291 3.34342 -3.36319 -83.269 21.7857 -7.53496 30.0522 0.0615366 0.141 3.66057 -0.557702 -17.9115 24.9344 0.0510561 0.116988 -0.144085 -26.8559 -0.446051 -1.26863 -7.82715 7.75138 0.600181 4.55938 3.08858 -13.3291 3.34342 -3.36319 83.6365 20.0835 14.0155 -30.0522 0.0615366 0.141 -3.44988 -0.49283 16.8499 -24.9344 0.0510559 0.116988 5.1566 -40.2431 7.88846 9.50369 -4.32711 2.09145 -8.64945 0.327362 -10.2556 -0.876987 -39.8926 -0.674123 -2.05077 7.64097 0.00339009 -2.39345 -41.5694 -6.22357 9.56589 -5.48458 14.7529 0.801613 -10.1701 12.8571 -2.10819e-16 -6.81992e-16 -1.77722e-16 -9.50369 -4.32711 2.09145 -18.2957 -10.7241 -4.9396 0.876987 -39.8926 -0.674123 17.9861 49.9964 -7.49187 2.39345 -41.5694 -6.22357 8.79782 10.803 -15.8412 -0.801613 -10.1701 12.8571 -1.75758e-17 -4.11053e-16 -1.26079e-14 
-264.608 93.3002 -10.5597 -2.76949 -4.50518 -70.3739 0 5.22546 -1.18466 -3.65651 6.23989 1.14911 0 5.77894 1.10239 -2.96998 4.58828 0.616645 -1.0557e-17 6.16289 0.118334 -2.22734 3.42354 0.581627 -1.13649e-17 6.69386 -0.456341 -1.48769 1.20472 0.605209 -2.02997e-17 7.82529 -1.54945 -0.557211 -0.582484 0.730979 -2.60628e-17 9.77186 -0.940923 0.50121 -1.65236 0.381565 -2.98794e-17 10.8563 1.62248 -0.063461 1.31597 0.0994002 -1.32927e-17 4.92478 0.736013 -4.91837e-05 2.12094 -1.42475 -1.86396e-17 4.96043 0.433981 0.976664 -6.07103 -0.848716 -2.06766e-17 4.97002 0.787173 1.27414 -6.92249 1.77 1.26863 -7.82717 7.75148 3.25809 4.01963 -1.7328 13.3291 3.34342 -3.36319 -83.0731 23.0031 -9.42453 30.0522 0.0615366 0.141 3.53994 -0.520111 -17.3036 24.9344 0.0510561 0.116988 -0.0796708 -27.1258 -0.641457 -1.26863 -7.82715 7.75138 0.889384 4.77044 3.32599 -13.3291 3.34342 -3.36319 84.3578 19.223 13.4889 -30.0522 0.0615366 0.141 -3.09593 -0.393544 15.0804 -24.9344 0.0510559 0.116988 5.66379 -38.9081 8.22342 9.50369 -4.32711 2.09145 -9.00231 1.54918 -10.7829 -0.876987 -39.8926 -0.674123 -1.88248 7.01805 -0.00720658 -2.39345 -41.5694 -6.22357 9.92486 -5.64964 14.6891 0.801613 -10.1701 12.8571 1.15886e-16 -6.67877e-16 -1.98141e-16 -9.50369 -4.32711 2.09145 -17.1879 -13.0141 -3.36429 0.876987 -39.8926 -0.674123 19.1115 51.6779 -8.3338 2.39345 -41.5694 -6.22357 8.07609 10.6357 -15.8152 -0.801613 -10.1701 12.8571 -9.97693e-16 -3.68707e-16 -1.2567e-14 
